<?xml version="1.0" encoding="iso-8859-1"?>
<!-- Generator: Adobe Illustrator 19.0.0, SVG Export Plug-In . SVG Version: 6.00 Build 0)  -->
<svg version="1.1" id="Capa_1" xmlns="http://www.w3.org/2000/svg" xmlns:xlink="http://www.w3.org/1999/xlink" x="0px" y="0px"
	 viewBox="0 0 512.001 512.001" style="enable-background:new 0 0 512.001 512.001;" xml:space="preserve">
<polygon style="fill:#EEC3CA;" points="403.764,281.301 402.348,274.276 406.983,275.563 411.877,281.301 "/>
<polygon style="fill:#FDD974;" points="237.301,300.555 125.758,331.174 125.758,365.074 237.301,389.996 348.844,365.074 
	348.844,331.174 "/>
<polygon style="fill:#E6C468;" points="166.966,365.074 166.966,331.174 257.905,306.21 237.301,300.555 125.758,331.174 
	125.758,365.074 237.301,389.996 257.905,385.393 "/>
<path style="fill:#FDD974;" d="M417.829,332.947c-6.355,0-12.403-3.715-15.075-9.923c-8.291-19.266-3.143-42.469,13.117-59.111
	c9.673-9.899,21.764-15.807,33.455-21.52c20.747-10.139,29.254-15.607,29.844-29.088c0.424-9.69-5.079-17.04-14.019-18.725
	c-20.39-3.837-43.924,5.621-62.154,14.294c-8.182,3.895-17.967,0.414-21.859-7.764c-3.893-8.181-0.416-17.967,7.764-21.859
	c22.726-10.813,52.625-22.504,82.324-16.909c25.119,4.735,41.861,26.282,40.718,52.398c-1.5,34.3-28.5,47.494-48.214,57.129
	c-9.611,4.697-18.686,9.132-24.396,14.975c-5.264,5.388-10.111,14.7-6.447,23.213c3.581,8.321-0.262,17.97-8.582,21.551
	C422.192,332.516,419.992,332.947,417.829,332.947z"/>
<path style="fill:#E6C468;" d="M471.227,162.339c-29.699-5.596-59.599,6.096-82.324,16.909c-8.182,3.892-11.658,13.679-7.764,21.859
	c3.891,8.18,13.678,11.66,21.859,7.766c15.405-7.33,34.597-15.217,52.478-15.171c2.971-11.781,7.589-18.16,17.419-23.733
	l8.291-4.701C478.043,163.992,474.72,162.998,471.227,162.339z"/>
<path style="fill:#E3E6E8;" d="M16.951,143.082c69.44,39.368-2.734,129.039,108.808,188.091h223.086
	c111.543-59.052,39.368-148.723,108.809-188.091l-220.352-16.951L16.951,143.082z"/>
<path style="fill:#CCCED0;" d="M58.157,143.083l199.748-15.365l-20.604-1.585L16.95,143.083
	c69.441,39.367-2.733,129.038,108.809,188.09h41.207C55.424,272.122,127.598,182.45,58.157,143.083z"/>
<path style="fill:#FDD974;" d="M457.653,109.182H16.951C7.588,109.182,0,116.771,0,126.133l0,0c0,9.361,7.588,16.951,16.951,16.951
	h440.702c9.361,0,16.951-7.588,16.951-16.951l0,0C474.602,116.771,467.014,109.182,457.653,109.182z"/>
<path style="fill:#E6C468;" d="M41.207,126.133L41.207,126.133c0-9.361,7.588-16.951,16.95-16.951H16.95
	c-9.361,0-16.95,7.589-16.95,16.951l0,0c0,9.361,7.588,16.951,16.95,16.951h41.207C48.796,143.083,41.207,135.494,41.207,126.133z"
	/>
<path style="fill:#BF7CBF;" d="M114.866,168.594H95.825c-7.888,0-14.281,6.394-14.281,14.281v49.763
	c0,7.888,6.394,14.281,14.281,14.281h19.041c7.887,0,14.281-6.394,14.281-14.281v-49.763
	C129.148,174.987,122.753,168.594,114.866,168.594z"/>
<path style="fill:#3B484A;" d="M105.346,186.532c-4.268,0-7.726-3.459-7.726-7.726v-73.997c0-4.267,3.458-7.726,7.726-7.726
	c4.268,0,7.726,3.459,7.726,7.726v73.997C113.073,183.073,109.613,186.532,105.346,186.532z"/>
<path style="fill:#E3E6E8;" d="M459.341,365.074H15.262c-7.159,0-11.416,7.992-7.415,13.928
	c9.94,14.747,29.608,35.916,60.609,35.916h337.693c31,0,50.668-21.17,60.609-35.916
	C470.758,373.066,466.499,365.074,459.341,365.074z"/>
<path style="fill:#CCCED0;" d="M49.053,379.002c-4.001-5.936,0.258-13.928,7.415-13.928H15.261c-7.159,0-11.416,7.992-7.415,13.928
	c9.94,14.746,29.608,35.916,60.609,35.916h41.207C78.662,414.919,58.993,393.749,49.053,379.002z"/>
<g>
	<path style="fill:#3B484A;" d="M165.674,230.766c-4.268,0-7.726-3.459-7.726-7.726v-12.964c0-4.267,3.458-7.726,7.726-7.726
		c4.268,0,7.726,3.459,7.726,7.726v12.964C173.4,227.307,169.942,230.766,165.674,230.766z"/>
	<path style="fill:#3B484A;" d="M308.93,230.766c-4.268,0-7.726-3.459-7.726-7.726v-12.964c0-4.267,3.458-7.726,7.726-7.726
		s7.726,3.459,7.726,7.726v12.964C316.656,227.307,313.197,230.766,308.93,230.766z"/>
	<path style="fill:#3B484A;" d="M237.301,240.346c-10.695,0-20.732-4.466-27.538-12.252c-2.809-3.213-2.481-8.094,0.732-10.902
		c3.213-2.808,8.094-2.481,10.901,0.732c3.871,4.429,9.668,6.969,15.904,6.969c6.236,0,12.033-2.54,15.904-6.968
		c2.808-3.213,7.69-3.541,10.901-0.732c3.213,2.808,3.542,7.689,0.732,10.902C258.034,235.881,247.997,240.346,237.301,240.346z"/>
</g>
<g>
</g>
<g>
</g>
<g>
</g>
<g>
</g>
<g>
</g>
<g>
</g>
<g>
</g>
<g>
</g>
<g>
</g>
<g>
</g>
<g>
</g>
<g>
</g>
<g>
</g>
<g>
</g>
<g>
</g>
</svg>
